<svg width="26" height="26" viewBox="0 0 26 26" fill="none" xmlns="http://www.w3.org/2000/svg">
<g clip-path="url(#clip0_20_11)">
<path d="M13.766 0L15.0964 0.16724C23.4089 1.5688 28.2691 10.312 24.9428 18.1634C23.1946 22.2909 19.2116 25.3236 14.7491 25.8923C14.4302 25.933 14.0727 25.916 13.7654 26.0007H12.2423L10.912 25.8334C5.45283 24.9485 1.05267 20.5617 0.176169 15.0929L0.00860209 13.7617C0.0296327 13.258 -0.0198911 12.7407 0.00860209 12.2383C0.379691 5.70984 5.71537 0.374427 12.243 0H13.766ZM12.5476 0.914062C10.1549 1.34672 8.81095 3.86818 8.07963 5.96646C9.54499 6.29823 11.0443 6.45802 12.5476 6.5V0.914062ZM13.4106 0.914062V6.5C14.9295 6.45531 16.4464 6.29484 17.9294 5.96646C17.135 3.87698 15.8399 1.33318 13.4106 0.914062ZM9.90794 1.27021C7.74246 1.83557 5.78796 3.00896 4.22355 4.59604C5.16925 5.08896 6.16651 5.51552 7.21466 5.73693C7.61152 4.45724 8.25669 3.25135 9.09724 2.21135C9.17186 2.11859 9.9561 1.31016 9.90794 1.27089V1.27021ZM16.0502 1.27021C17.2917 2.535 18.2164 4.03677 18.7897 5.71729C18.8894 5.78839 20.2177 5.30156 20.4294 5.21896C20.5868 5.15734 21.734 4.67323 21.7346 4.59604C20.2021 2.98391 18.2103 1.82068 16.0502 1.27021ZM0.871538 12.5937H6.04915C6.06611 10.5469 6.40735 8.52651 6.91073 6.55281C5.76218 6.30026 4.69573 5.79448 3.64487 5.2887C1.938 7.31656 0.940057 9.93213 0.871538 12.5944V12.5937ZM25.1368 12.5937C25.0744 12.2186 25.0758 11.8361 25.0283 11.4583C24.7848 9.52453 23.9802 7.4601 22.8214 5.89604C22.7373 5.78229 22.3812 5.28057 22.278 5.28937C22.2014 5.29615 21.757 5.58187 21.6179 5.64552C20.8039 6.01859 19.9206 6.35781 19.0454 6.55078C19.5888 8.51297 19.9199 10.549 19.9084 12.5931H25.1368V12.5937ZM12.5476 7.36328C10.9398 7.34635 9.35164 7.11615 7.77977 6.80807C7.66037 7.31453 7.50162 7.81693 7.39308 8.32609C7.09458 9.73036 6.96839 11.1617 6.91276 12.5937H12.5476V7.36328ZM13.4106 7.36328V12.5937H19.0454C19.0508 10.6302 18.696 8.70052 18.2334 6.80469C16.6452 7.12224 15.0353 7.34161 13.4106 7.36328ZM6.04983 13.457H0.871538C0.913599 15.1166 1.34032 16.7991 2.054 18.2921C2.47733 19.1777 3.04855 19.9733 3.61434 20.7695C4.40672 20.3579 5.2276 19.9936 6.07357 19.7011C6.2174 19.6517 6.87817 19.5203 6.90869 19.4174C6.38903 17.4742 6.07561 15.4747 6.04983 13.457ZM12.5476 13.457H6.91276C6.96432 14.9588 7.11968 16.4572 7.44531 17.9265C7.54301 18.3686 7.6753 18.8053 7.77638 19.2468C9.33943 18.9028 10.9405 18.6692 12.5476 18.6882V13.4577V13.457ZM19.0454 13.457H13.4106V18.611C13.6738 18.7627 14.0822 18.6658 14.3997 18.6875C15.6724 18.7748 16.9376 18.9739 18.1845 19.2244C18.6255 17.8391 18.8317 16.3969 18.9939 14.9541L19.0454 13.4564V13.457ZM25.1368 13.457H19.9084C19.9158 15.4835 19.5997 17.5067 19.0454 19.4485C20.1851 19.758 21.2821 20.2001 22.3208 20.7573C24.0575 18.7274 24.989 16.1227 25.1375 13.457H25.1368ZM12.5476 19.5508C11.0463 19.5535 9.53549 19.7302 8.07895 20.085C8.84216 22.1914 10.1501 24.6546 12.5476 25.1367V19.5508ZM13.4106 19.5508V25.1367C15.8603 24.6689 17.1113 22.1738 17.9288 20.0593C16.4424 19.7654 14.9309 19.5372 13.4106 19.5508ZM21.7353 21.3796C20.7747 20.9611 19.8147 20.5278 18.789 20.2827C18.3629 21.5428 17.7483 22.7527 16.9111 23.7893C16.8372 23.8807 16.0516 24.6912 16.1004 24.7298C17.8494 24.3073 19.5284 23.4007 20.8961 22.2408C21.0949 22.0722 21.5542 21.6971 21.6851 21.5069C21.715 21.4642 21.7557 21.4568 21.7353 21.3803V21.3796ZM7.21126 20.3186C7.09661 20.2448 5.84631 20.6978 5.63057 20.781C5.2276 20.9374 4.7059 21.15 4.3382 21.3674C4.30768 21.3857 4.23848 21.3687 4.27376 21.4541C4.32328 21.5732 5.10684 22.2618 5.26423 22.3932C6.61562 23.5178 8.21938 24.2958 9.90726 24.7812C9.93032 24.6939 9.87198 24.6797 9.83195 24.6282C9.62911 24.3709 9.31637 24.1109 9.09724 23.8401C8.26483 22.8136 7.61695 21.5753 7.21126 20.3186Z" fill="#F9E547"/>
</g>
<defs>
<clipPath id="clip0_20_11">
<rect width="26" height="26" fill="white"/>
</clipPath>
</defs>
</svg>
