<?xml version="1.0" encoding="UTF-8"?>
<svg xmlns="http://www.w3.org/2000/svg" version="1.1" viewBox="0 0 100 100">
  <defs>
    <style>
      .cls-1 {
        fill: #f9e547;
      }
    </style>
  </defs>
  <!-- Generator: Adobe Illustrator 28.7.1, SVG Export Plug-In . SVG Version: 1.2.0 Build 142)  -->
  <g>
    <g id="Capa_1">
      <g id="Capa_1-2" data-name="Capa_1">
        <path class="cls-1" d="M58.2,33.9c4.5-1.3,8.5-3.2,12.7-3.7,13.8-1.6,24.3,8,24.9,23,.5,11.6,0,23.3.2,35,0,2.8-1,3.9-3.8,3.9-5.3,0-10.7-.2-16,0-3.3,0-4.3-1.3-4.3-4.4,0-9.5,0-19,0-28.5s-2.6-9.1-6.9-9.1-7,3.2-7.1,9c0,9.5,0,19,0,28.5,0,3.5-1.2,4.7-4.7,4.6-5-.2-10-.2-15,0-3.2,0-4.5-.9-4.5-4.3,0-17.8,0-35.6,0-53.5,0-3.2,1.1-4.5,4.3-4.4,5,.2,10,0,15,0s4.1,0,4.9,3.9h.3ZM91.9,87.8c0-12,.5-23.6,0-35.2-.6-11.9-8.7-19.5-19.2-18.3-4.8.6-9.6,3.3-14,5.6-2.9,1.5-4.3,1.7-4.5-2,0-1.1,0-2.3-.2-3.7h-15.6v53.4h15.7v-4.3c0-8.8,0-17.6,0-26.5,0-6.1,4.6-10.5,10.3-10.9,5.5-.3,10.2,3.4,11.3,9.2.4,1.9.3,4,.3,6v26.5h15.9v.2Z"/>
        <path class="cls-1" d="M28,61.1c0,8.6-.1,17.3,0,25.9,0,3.5-.8,5.2-4.7,5-5-.3-10-.2-15,0-3.2,0-4.5-.9-4.4-4.2,0-17.9,0-35.9,0-53.8s1.3-4.1,4.2-4c5.1.1,10.3.2,15.5,0,3.7-.2,4.5,1.5,4.5,4.8-.2,8.8,0,17.6,0,26.4h0ZM8.4,34.2v53.5h15.3v-53.5s-15.3,0-15.3,0Z"/>
        <path class="cls-1" d="M16.2,25.9c-6.8,0-12.1-4.5-12.1-10s5.2-10,12-9.9c6.7,0,12,4.6,11.8,10.2-.1,5.5-5.4,9.8-11.8,9.7h0ZM16.3,10c-4.6,0-8,2.2-8.2,5.6-.2,3.6,3.2,6.4,7.9,6.4s7.9-2.4,8-5.9c0-3.5-3.1-6-7.7-6.1Z"/>
      </g>
    </g>
  </g>
</svg>