<?xml version="1.0" encoding="UTF-8"?>
<svg xmlns="http://www.w3.org/2000/svg" version="1.1" viewBox="0 0 800 800">
  <defs>
    <style>
      .cls-1 {
        fill: #fff;
      }
    </style>
  </defs>
  <!-- Generator: Adobe Illustrator 28.7.1, SVG Export Plug-In . SVG Version: 1.2.0 Build 142)  -->
  <g>
    <g id="Layer_1">
      <g>
        <path class="cls-1" d="M592,459.7c-1.6-.7-59.9-29.5-70.2-33.2-4.2-1.5-8.8-3-13.6-3-7.9,0-14.5,3.9-19.6,11.6-5.8,8.7-23.5,29.3-28.9,35.4-.7.8-1.7,1.8-2.3,1.8s-9.5-3.7-12.3-4.9c-62.6-27.2-110.1-92.5-116.6-103.6-.9-1.6-1-2.3-1-2.3.2-.8,2.3-2.9,3.4-4,3.2-3.1,6.6-7.3,9.9-11.3,1.6-1.9,3.2-3.8,4.7-5.6,4.8-5.6,7-10,9.5-15l1.3-2.6c6.1-12.1.9-22.3-.8-25.6-1.4-2.8-26-62.2-28.6-68.4-6.3-15.1-14.6-22.1-26.2-22.1s0,0-4.5.2c-5.5.2-35.3,4.2-48.5,12.5-14,8.8-37.6,36.9-37.6,86.4s28.2,86.5,40.4,102.5c.3.4.9,1.2,1.7,2.4,46.4,67.8,104.3,118,163,141.5,56.5,22.6,83.2,25.2,98.4,25.2h0c6.4,0,11.5-.5,16-.9l2.9-.3c19.5-1.7,62.4-23.9,72.1-51.1,7.7-21.3,9.7-44.7,4.6-53.1-3.5-5.8-9.5-8.7-17.2-12.3Z"/>
        <path class="cls-1" d="M407.1,0C190.4,0,14.2,174.9,14.2,390s18.6,137.6,53.9,197.2L.6,786.3c-1.3,3.7-.3,7.8,2.4,10.6,2,2,4.7,3.1,7.4,3.1s2.1-.2,3.1-.5l207.6-66c56.8,30.4,121,46.4,186,46.4,216.6,0,392.9-174.9,392.9-389.9S623.7,0,407.1,0ZM407.1,698.7c-61.1,0-120.4-17.7-171.3-51.1-1.7-1.1-3.7-1.7-5.7-1.7s-2.1.2-3.1.5l-104,33.1,33.6-99c1.1-3.2.5-6.7-1.5-9.5-38.8-53-59.3-115.5-59.3-181,0-170.2,139.6-308.7,311.2-308.7s311.2,138.5,311.2,308.7c0,170.2-139.6,308.7-311.2,308.7Z"/>
      </g>
    </g>
  </g>
</svg>