<?xml version="1.0" encoding="UTF-8"?>
<svg xmlns="http://www.w3.org/2000/svg" version="1.1" viewBox="0 0 100 100">
  <defs>
    <style>
      .cls-1 {
        fill: #f9e547;
      }
    </style>
  </defs>
  <!-- Generator: Adobe Illustrator 28.7.1, SVG Export Plug-In . SVG Version: 1.2.0 Build 142)  -->
  <g>
    <g id="Capa_1">
      <path class="cls-1" d="M76.1,93.9c-5.1-.6-10.6-2.4-15.6-5.5-20.2-12.3-36.4-28.6-48.8-48.8-.5-.8-1-1.7-1.4-2.6C3.1,20.2,4.5,18.9,19.2,7.4c3.4-2.7,6.8-1.7,9.3,2.1,2.9,4.6,5.8,9.3,9.1,13.7,2.9,3.9,3.3,7.7.3,11.3-4.1,4.9-2.6,8.6,1.5,12.6,5.5,5.5,10.9,11.2,16.8,16.3,2.1,1.8,4,2.2,6.1.4,6.2-5.1,11.8-4.2,17.7.8,3.4,2.9,7.4,5,11.1,7.5,2.7,1.8,3.7,4.5,2.1,7.3-3.1,5.6-7.4,10.2-12.7,13.8-1.2.8-2.5.8-4.6.7ZM76.9,89.9c.5-.1,1.4-.1,2-.6,4.4-2.9,7.6-6.9,10.5-11.2,1.2-1.8-.3-2.7-1.6-3.5-2.9-1.9-6.1-3.5-8.6-5.8-5.5-5-10.9-5.5-16.5-.6-2.7,2.3-4.9,1.6-7.4-.5-7.1-5.8-13.7-12.1-19.7-19-6.2-7.2-6.1-7.2-1.6-15.5,1-1.9,2.9-3.8,1.1-6.3-3.4-4.9-6.7-9.9-9.9-14.9-1.3-2.1-2.6-2-4.5-.8-11,6.6-12.6,11.8-7.2,23.4.3.6.5,1.2.9,1.8,12.3,20.6,28.8,37.2,49.5,49.4,3.8,2.3,8.1,3.7,13,4.3Z"/>
      <path class="cls-1" d="M89.9,47.2c-.2,1,.8,2.7-1.5,2.8-2,.1-2.3-.7-2.6-2.5-2.9-19.7-13.8-30.7-33.1-33.3-1.6-.2-2.9-.1-2.7-2.4.2-2.7,2-1.7,3.2-1.7,18.5.7,36.5,18.8,36.7,37.1Z"/>
      <path class="cls-1" d="M78.8,47.7c.1,1.3,0,2.3-1.7,2.3-1.6,0-2.2-.4-2.5-2.1-1.9-13.1-9.5-20.8-22.7-22.7-1.8-.3-2.1-.9-2.1-2.5,0-1.8,1.1-1.6,2.3-1.7,12.4-.2,26.8,14.2,26.6,26.6Z"/>
      <path class="cls-1" d="M52.7,32.2c7.2.8,14.3,7.9,15.1,15.1.1,1.2.8,2.7-1.5,2.8-1.6,0-2.2-.3-2.5-2.1-1.2-6.5-5.2-10.5-11.8-11.7-1.8-.3-2.2-1.1-2-2.6.2-1.7.4-1.8,2.8-1.5Z"/>
    </g>
  </g>
</svg>