<?xml version="1.0" encoding="UTF-8"?>
<svg xmlns="http://www.w3.org/2000/svg" version="1.1" viewBox="0 0 100 100">
  <defs>
    <style>
      .cls-1 {
        fill: #f9e547;
      }
    </style>
  </defs>
  <!-- Generator: Adobe Illustrator 28.7.1, SVG Export Plug-In . SVG Version: 1.2.0 Build 142)  -->
  <g>
    <g id="Capa_1">
      <g id="Capa_1-2" data-name="Capa_1">
        <path class="cls-1" d="M18,8c-5.5,0-10,4.5-10,10v64c0,5.5,4.5,10,10,10h64c5.5,0,10-4.5,10-10V18c0-5.5-4.5-10-10-10H18ZM18,12h64c3.3,0,6,2.7,6,6v64c0,3.3-2.7,6-6,6H18c-3.3,0-6-2.7-6-6V18c0-3.3,2.7-6,6-6ZM52.1,20c-1.1,0-2,.9-2,2v39.2c0,3.6-3.3,6.6-7.1,6.6s-6.7-3-6.7-6.7,3-6.7,6.7-6.7.4,0,.8,0c1.1,0,2.1-.7,2.2-1.7v-8.6c0-1.1-.8-1.9-1.9-2h-1.2c-10.5,0-19.1,8.6-19.1,19.1s8.6,19.1,19.1,19.1,19.1-8.6,19.1-19.1v-18.1c2.9,2.3,6.5,3.8,10.5,3.8s1.1,0,1.6,0c1,0,1.8-1,1.8-2v-9.3c0-1-.8-1.9-1.9-2-6.3-.5-11.3-5.4-12-11.6,0-1-1-1.8-2-1.8h-8v-.2ZM54.1,24h4.6c1.5,6.6,6.6,11.6,13.3,12.9v5.7c-4.3-.2-8-2.4-10.2-5.7-.6-.9-1.8-1.2-2.8-.6-.6.4-.9,1-.9,1.7v23.1c0,8.3-6.7,15.1-15.1,15.1s-15.1-6.7-15.1-15.1,6.2-14.4,14.1-14.9v4.4c-5.4.5-9.8,5-9.8,10.5s4.8,10.7,10.7,10.7,11.1-4.6,11.1-10.6V24h0Z"/>
      </g>
    </g>
  </g>
</svg>