<?xml version="1.0" encoding="UTF-8"?>
<svg xmlns="http://www.w3.org/2000/svg" version="1.1" viewBox="0 0 100 100">
  <defs>
    <style>
      .cls-1 {
        fill: #f9e547;
      }
    </style>
  </defs>
  <!-- Generator: Adobe Illustrator 28.7.1, SVG Export Plug-In . SVG Version: 1.2.0 Build 142)  -->
  <g>
    <g id="Capa_1">
      <g id="Capa_1-2" data-name="Capa_1">
        <path class="cls-1" d="M32,6c-14.3,0-26,11.7-26,26v36c0,14.3,11.7,26,26,26h36c14.3,0,26-11.7,26-26v-36c0-14.3-11.7-26-26-26h-36ZM32,10h36c12.2,0,22,9.8,22,22v36c0,12.2-9.8,22-22,22h-36c-12.2,0-22-9.8-22-22v-36c0-12.2,9.8-22,22-22ZM74,22c-2.2,0-4,1.8-4,4s1.8,4,4,4,4-1.8,4-4-1.8-4-4-4ZM50,28c-12.1,0-22,9.9-22,22s9.9,22,22,22,22-9.9,22-22-9.9-22-22-22ZM50,32c10,0,18,8,18,18s-8,18-18,18-18-8-18-18,8-18,18-18Z"/>
      </g>
    </g>
  </g>
</svg>