<?xml version="1.0" encoding="UTF-8"?>
<svg xmlns="http://www.w3.org/2000/svg" version="1.1" viewBox="0 0 100 100">
  <defs>
    <style>
      .cls-1 {
        fill: #f9e547;
      }
    </style>
  </defs>
  <!-- Generator: Adobe Illustrator 28.7.1, SVG Export Plug-In . SVG Version: 1.2.0 Build 142)  -->
  <g>
    <g id="Capa_1">
      <g id="Capa_1-2" data-name="Capa_1">
        <path class="cls-1" d="M18,8c-5.5,0-10,4.5-10,10v64c0,5.5,4.5,10,10,10h64.1c5.5,0,10-4.5,10-10V18c0-5.5-4.5-10-10-10H18ZM18,12h64c3.3,0,6,2.7,6,6v64c0,3.3-2.7,6-6,6h-16v-28h7.6l2.8-14h-10.4v-4c0-1.1,0-1.2.5-1.4s1.5-.6,3.5-.6h6v-11.3l-1.1-.5s-4.6-2.2-10.9-2.2-8.2,1.8-10.6,4.8c-2.4,3-3.4,6.9-3.4,11.2v4h-6v14h6v28H18c-3.3,0-6-2.7-6-6V18c0-3.3,2.7-6,6-6ZM64,30c4.2,0,6.8.9,8,1.4v4.6h-2c-2.3,0-4.1.2-5.7,1.2s-2.3,2.9-2.3,4.8v8h9.6l-1.2,6h-8.4v32h-8v-32h-6v-6h6v-8c0-3.7.9-6.7,2.6-8.8,1.6-2,3.9-3.2,7.4-3.2Z"/>
      </g>
    </g>
  </g>
</svg>