<?xml version="1.0" encoding="UTF-8"?>
<svg xmlns="http://www.w3.org/2000/svg" version="1.1" viewBox="0 0 100 100">
  <defs>
    <style>
      .cls-1 {
        fill: #f9e547;
      }
    </style>
  </defs>
  <!-- Generator: Adobe Illustrator 28.7.1, SVG Export Plug-In . SVG Version: 1.2.0 Build 142)  -->
  <g>
    <g id="Capa_1">
      <g id="Capa_1-2" data-name="Capa_1">
        <path class="cls-1" d="M48.8,18c-13.2,0-25.6,1-32.2,2.4-4.4,1-8.2,4-9,8.6-.8,4.8-1.6,12-1.6,21s.8,16,1.8,21c.8,4.4,4.6,7.6,9,8.6,7,1.4,19,2.4,32.2,2.4s25.2-1,32.2-2.4c4.4-1,8.2-4,9-8.6.8-5,1.8-12.2,2-21.2,0-9-1-16.2-2-21.2-.8-4.4-4.6-7.6-9-8.6-7-1-19.2-2-32.4-2ZM48.8,22c14.4,0,26,1.2,31.6,2.2,3,.8,5.4,2.8,5.8,5.4,1.2,6.4,2,13.2,2,20.2-.2,8.6-1.2,15.6-2,20.6-.6,3.8-4.6,5-5.8,5.4-7.2,1.4-19.2,2.4-31.2,2.4s-24.2-.8-31.2-2.4c-3-.8-5.4-2.8-5.8-5.4-1.6-5.6-2.2-13-2.2-20.4s.8-16,1.6-20.2c.6-3.8,4.8-5,5.8-5.4,6.6-1.4,18.8-2.4,31.4-2.4ZM38,34v32l28-16-28-16ZM42,40.8l16,9.2-16,9.2v-18.4Z"/>
      </g>
    </g>
  </g>
</svg>